<svg id="Layer_1" data-name="Layer 1" xmlns="http://www.w3.org/2000/svg" xmlns:xlink="http://www.w3.org/1999/xlink" viewBox="0 0 1045.19264 302.09544">
  <defs>
    <style>
      .cls-1 {
        fill: #a57c13;
      }

      .cls-2 {
        fill: url(#linear-gradient);
      }

      .cls-3 {
        fill: url(#linear-gradient-2);
      }
    </style>
    <linearGradient id="linear-gradient" x1="819.37096" y1="160.3804" x2="1067.23372" y2="160.3804" gradientUnits="userSpaceOnUse">
      <stop offset="0.04347" stop-color="#a57c13"/>
      <stop offset="0.26647" stop-color="#ac8113"/>
      <stop offset="0.37311" stop-color="#f9b214"/>
      <stop offset="0.64738" stop-color="#b18413"/>
      <stop offset="0.91502" stop-color="#ad8113"/>
    </linearGradient>
    <linearGradient id="linear-gradient-2" x1="737.28074" y1="188.48976" x2="985.11064" y2="188.48976" xlink:href="#linear-gradient"/>
  </defs>
  <g>
    <g>
      <path class="cls-1" d="M28.00034,200.35132H35.791l5.95565,36.592H36.00009l-1.04548-7.26792v.10815H28.41853l-1.04548,7.15977h-5.332Zm6.2729,24.46433L31.71,206.72878h-.101L29.0999,224.81565Z" transform="translate(-22.04108 -10.34247)"/>
      <path class="cls-1" d="M54.97743,200.35132H60.7312v31.36452H70.191v5.22743H54.97743Z" transform="translate(-22.04108 -10.34247)"/>
      <path class="cls-1" d="M83.42181,200.35132h8.78207c5.74655,0,8.573,3.18693,8.573,9.04164v18.50867c0,5.85471-2.82642,9.04164-8.573,9.04164H83.42181Zm8.67391,31.36452c1.8314,0,2.92736-.94093,2.92736-3.55464V209.13339c0-2.61371-1.096-3.55465-2.92736-3.55465H89.16837v26.1371Z" transform="translate(-22.04108 -10.34247)"/>
      <path class="cls-1" d="M119.44415,200.35132h7.78705l5.96286,36.592H127.4403l-1.04549-7.26792v.10815h-6.53247l-1.04548,7.15977h-5.332Zm6.2729,24.46433-2.55963-18.08687h-.10816l-2.50916,18.08687Z" transform="translate(-22.04108 -10.34247)"/>
      <path class="cls-1" d="M151.12592,200.35132h7.787l5.96287,36.592h-5.75377l-1.04548-7.26792v.10815h-6.53248l-1.04548,7.15977h-5.332Zm6.2729,24.46433-2.55963-18.08687H154.731l-2.50917,18.08687Z" transform="translate(-22.04108 -10.34247)"/>
      <path class="cls-1" d="M178.10662,200.35132h8.51889c5.95926,0,8.51889,2.76873,8.51889,8.41435v2.24959c0,3.76374-1.2005,6.16836-3.76374,7.21384v.10455c2.87688.88686,3.81782,3.60512,3.81782,7.73658v6.43153a10.80669,10.80669,0,0,0,.62729,4.44151h-5.85471c-.31365-.94094-.52274-1.51415-.52274-4.49559v-6.69109c0-3.39963-.995-4.49559-3.60512-4.49559h-1.99v15.68227h-5.74656Zm7.83752,15.68226c2.145,0,3.45371-.94093,3.45371-3.86829v-2.8228c0-2.61371-.89047-3.76375-2.92736-3.76375h-2.61731v10.45484Z" transform="translate(-22.04108 -10.34247)"/>
      <path class="cls-1" d="M228.45569,200.35132h8.20525l3.65919,26.18758h.10455l3.65919-26.18758h8.20886v36.592h-5.43652V209.23794h-.10815l-4.18194,27.70533h-4.80923L233.575,209.23794h-.101v27.70533h-5.01832Z" transform="translate(-22.04108 -10.34247)"/>
      <path class="cls-1" d="M271.48277,200.35132h7.79066l5.95565,36.592h-5.74656l-1.04548-7.26792v.10815H271.901l-1.04548,7.15977h-5.332Zm6.2729,24.46433-2.56324-18.08687h-.10094l-2.50916,18.08687Z" transform="translate(-22.04108 -10.34247)"/>
      <path class="cls-1" d="M298.45986,200.35132h8.5225c5.95926,0,8.5225,2.76873,8.5225,8.41435v2.24959c0,3.76374-1.20411,6.16836-3.76374,7.21384v.10455c2.87327.88686,3.81421,3.60512,3.81421,7.73658v6.43153a10.74673,10.74673,0,0,0,.62729,4.44151h-5.85471c-.31365-.94094-.52274-1.51415-.52274-4.49559v-6.69109c0-3.39963-.99141-4.49559-3.60873-4.49559h-1.98281v15.68227h-5.75377Zm7.84474,15.68226c2.14144,0,3.44649-.94093,3.44649-3.86829v-2.8228c0-2.61371-.88686-3.76375-2.92736-3.76375h-2.6101v10.45484Z" transform="translate(-22.04108 -10.34247)"/>
      <path class="cls-1" d="M329.99022,200.35132h8.51889c5.95926,0,8.5189,2.76873,8.5189,8.41435v2.24959c0,3.76374-1.20051,6.16836-3.76375,7.21384v.10455c2.87689.88686,3.81782,3.60512,3.81782,7.73658v6.43153a10.80669,10.80669,0,0,0,.62729,4.44151h-5.85471c-.31364-.94094-.52274-1.51415-.52274-4.49559v-6.69109c0-3.39963-.995-4.49559-3.60512-4.49559h-1.99v15.68227h-5.74656Zm7.83753,15.68226c2.145,0,3.4537-.94093,3.4537-3.86829v-2.8228c0-2.61371-.89047-3.76375-2.92736-3.76375h-2.61731v10.45484Z" transform="translate(-22.04108 -10.34247)"/>
      <path class="cls-1" d="M361.51337,200.35132h5.75377v36.592h-5.75377Z" transform="translate(-22.04108 -10.34247)"/>
      <path class="cls-1" d="M386.45357,200.35132h7.787l5.96287,36.592h-5.75377l-1.04548-7.26792v.10815h-6.53248l-1.04548,7.15977h-5.332Zm6.27291,24.46433-2.55964-18.08687h-.10815l-2.50916,18.08687Z" transform="translate(-22.04108 -10.34247)"/>
      <path class="cls-1" d="M412.90792,228.26575V209.02884c0-5.85471,2.92736-9.20026,8.573-9.20026s8.573,3.34555,8.573,9.20026v3.13645h-5.43651v-3.50057c0-2.61731-1.15364-3.60872-2.98144-3.60872s-2.98143.99141-2.98143,3.60872v20.01922c0,2.61371,1.15364,3.55465,2.98143,3.55465s2.98144-.94094,2.98144-3.55465v-7.16337h-2.87689v-5.22742h8.3134v11.9726c0,5.85471-2.92735,9.20026-8.573,9.20026S412.90792,234.12046,412.90792,228.26575Z" transform="translate(-22.04108 -10.34247)"/>
      <path class="cls-1" d="M444.222,200.35132h15.68227v5.22742h-9.9285v9.66893h7.8916v5.22742h-7.8916v11.24075h9.9285v5.22743H444.222Z" transform="translate(-22.04108 -10.34247)"/>
      <path class="cls-1" d="M491.48867,228.26575v-2.091h5.43652v2.50916c0,2.61371,1.15,3.55465,2.98143,3.55465,1.82779,0,2.97783-.94094,2.97783-3.6592,0-3.0319-1.15-4.96785-4.91378-8.25932-4.80922-4.236-6.37745-7.21384-6.37745-11.39578,0-5.75016,2.97783-9.09571,8.573-9.09571s8.36387,3.34555,8.36387,9.20026v1.51775h-5.43652v-1.88187c0-2.61731-1.04548-3.60872-2.87688-3.60872-1.82779,0-2.87328.99141-2.87328,3.50057,0,2.66779,1.20051,4.60013,4.96425,7.89521,4.80923,4.23241,6.327,7.15976,6.327,11.70942,0,5.95926-3.0319,9.30481-8.67752,9.30481S491.48867,234.12046,491.48867,228.26575Z" transform="translate(-22.04108 -10.34247)"/>
      <path class="cls-1" d="M522.38813,200.35132h15.68226v5.22742h-9.9357v9.66893h7.89521v5.22742h-7.89521v11.24075h9.9357v5.22743H522.38813Z" transform="translate(-22.04108 -10.34247)"/>
      <path class="cls-1" d="M551.82031,200.35132h8.5225c5.95926,0,8.5225,2.76873,8.5225,8.41435v2.24959c0,3.76374-1.20411,6.16836-3.76374,7.21384v.10455c2.87327.88686,3.81421,3.60512,3.81421,7.73658v6.43153a10.74673,10.74673,0,0,0,.62729,4.44151h-5.85471c-.31365-.94094-.52274-1.51415-.52274-4.49559v-6.69109c0-3.39963-.99141-4.49559-3.60873-4.49559h-1.98281v15.68227h-5.75377Zm7.84474,15.68226c2.14144,0,3.44649-.94093,3.44649-3.86829v-2.8228c0-2.61371-.88686-3.76375-2.92735-3.76375h-2.61011v10.45484Z" transform="translate(-22.04108 -10.34247)"/>
      <path class="cls-1" d="M581.62382,200.35132h5.80063l3.76375,28.3867h.10815l3.76374-28.3867H600.338l-5.54106,36.592h-7.632Z" transform="translate(-22.04108 -10.34247)"/>
      <path class="cls-1" d="M613.56877,200.35132h5.75376v36.592h-5.75376Z" transform="translate(-22.04108 -10.34247)"/>
      <path class="cls-1" d="M633.69974,228.47484v-19.6551c0-5.64561,2.92736-8.99116,8.46842-8.99116s8.46842,3.34555,8.46842,8.99116V212.688h-5.43651v-4.2324c0-2.40822-1.15-3.39963-2.87689-3.39963-1.72324,0-2.87328.99141-2.87328,3.39963V228.893c0,2.40461,1.15,3.34555,2.87328,3.34555,1.72685,0,2.87689-.94094,2.87689-3.34555V223.3015h5.43651v5.17334c0,5.64562-2.92735,8.99117-8.46842,8.99117S633.69974,234.12046,633.69974,228.47484Z" transform="translate(-22.04108 -10.34247)"/>
      <path class="cls-1" d="M664.54513,200.35132h15.68226v5.22742H670.2989v9.66893h7.8916v5.22742h-7.8916v11.24075h9.92849v5.22743H664.54513Z" transform="translate(-22.04108 -10.34247)"/>
      <path class="cls-1" d="M693.09045,228.26575v-2.091H698.527v2.50916c0,2.61371,1.15,3.55465,2.97782,3.55465,1.8314,0,2.98144-.94094,2.98144-3.6592,0-3.0319-1.15-4.96785-4.91378-8.25932-4.80923-4.236-6.37745-7.21384-6.37745-11.39578,0-5.75016,2.98143-9.09571,8.573-9.09571s8.36387,3.34555,8.36387,9.20026v1.51775h-5.43652v-1.88187c0-2.61731-1.04548-3.60872-2.87328-3.60872-1.8314,0-2.87688.99141-2.87688,3.50057,0,2.66779,1.20411,4.60013,4.96785,7.89521,4.80923,4.23241,6.32338,7.15976,6.32338,11.70942,0,5.95926-3.03191,9.30481-8.67752,9.30481S693.09045,234.12046,693.09045,228.26575Z" transform="translate(-22.04108 -10.34247)"/>
    </g>
    <g>
      <path class="cls-1" d="M115.728,151.1139q4.46063,0,6.07907-1.422,1.61691-1.4214,1.91125-4.82817a7.27334,7.27334,0,0,0-1.47019-5.51508,6.59735,6.59735,0,0,0-3.94667-2.47586,55.62566,55.62566,0,0,0-8.11264-.31875H80.18759l2.94162-6.716h31.03038q7.25428.10008,10.83372,2.45115,7.98909,6.12849,3.87255,18.82467-2.40267,4.80347-9.75518,6.66653H90.43324q-4.46154,0-6.07845,1.422-1.61784,1.4214-1.91187,4.82817a7.27247,7.27247,0,0,0,1.47081,5.51508,6.59262,6.59262,0,0,0,3.946,2.47586,55.6153,55.6153,0,0,0,8.11263.31875h30.00124L123.032,179.055H92.00165q-7.25522-.09822-10.83311-2.44991-7.99093-6.12849-3.87316-18.82467,2.40174-4.80346,9.75518-6.66653Zm-11.59354,17.47555a3.71069,3.71069,0,0,0,5.46629,0,4.40894,4.40894,0,0,0,.0488-5.83383,3.488,3.488,0,0,0-2.647-1.15145,3.81735,3.81735,0,0,0-2.8187,1.22557,3.93647,3.93647,0,0,0-1.20148,2.84279A4.05885,4.05885,0,0,0,104.13446,168.58945Z" transform="translate(-22.04108 -10.34247)"/>
      <path class="cls-1" d="M138.47339,157.78043V109.15158h6.17667v48.62885Z" transform="translate(-22.04108 -10.34247)"/>
      <path class="cls-1" d="M165.386,124.44655q26.56914-2.40174,24.31443,26.66735-1.56873,19.21569-13.77474,20.6865H161.51344l-3.6273-6.66653h19.46093q6.324-4.70709,6.52012-14.70689,1.5678-22.40131-18.33419-20.14784-9.31411,2.6482-9.65695,13.48132a7.03169,7.03169,0,0,0,3.67672,7.35344h18.62761l-2.647,6.66653H157.88614a12.39266,12.39266,0,0,1-6.716-6.32431Q145.97293,130.13337,165.386,124.44655Z" transform="translate(-22.04108 -10.34247)"/>
      <path class="cls-1" d="M214.69738,120.502a3.4714,3.4714,0,0,0-2.64-1.15,3.8044,3.8044,0,0,0-2.82,1.22,3.95331,3.95331,0,0,0-1.2,2.84,4.04471,4.04471,0,0,0,1.15,2.92,3.70535,3.70535,0,0,0,5.46,0,4.39786,4.39786,0,0,0,.05-5.83Z" transform="translate(-22.04108 -10.34247)"/>
      <path class="cls-1" d="M231.66741,109.152v48.63h-16.13q-3.975,16.47-24.37,13.33l.69-6.22q8.475,1.95,12.33-.52a11.40241,11.40241,0,0,0,5.02-6.59v-25.69h6.33v19.02h9.95v-41.96Z" transform="translate(-22.04108 -10.34247)"/>
      <path class="cls-1" d="M237.8394,157.78043V109.15158h6.17667v48.62885Z" transform="translate(-22.04108 -10.34247)"/>
      <path class="cls-1" d="M338.47741,120.502a3.47759,3.47759,0,0,0-2.65-1.15,3.7986,3.7986,0,0,0-2.81,1.22,3.9135,3.9135,0,0,0-1.2,2.84,4.04451,4.04451,0,0,0,1.15,2.92,3.70528,3.70528,0,0,0,5.46,0,4.39795,4.39795,0,0,0,.05-5.83Zm-9.36005,0a3.47737,3.47737,0,0,0-2.65-1.15,3.80423,3.80423,0,0,0-2.82,1.22,3.95337,3.95337,0,0,0-1.2,2.84,4.086,4.086,0,0,0,1.15,2.92,3.71664,3.71664,0,0,0,5.47,0,4.39783,4.39783,0,0,0,.05-5.83Z" transform="translate(-22.04108 -10.34247)"/>
      <path class="cls-1" d="M339.06737,133.022v24.76h-47.94a31.62958,31.62958,0,0,1-11.6-4.46,15.0782,15.0782,0,0,1-6.25-9.46q-1.665-18,17.85-21.43l1.71-.14,2.26,6.17005q-14.07-.135-14.9,11.32995.585,11.22006,13.57,11.32h38.63v-18.09Z" transform="translate(-22.04108 -10.34247)"/>
      <path class="cls-1" d="M388.67736,162.432l-1.86.69-11.33-7.35.69-6.32,9.31,5.34c2.85.36005,4.28-.98,4.32-4.02a8.26167,8.26167,0,0,0-2.16-7.5q-4.755-2.355-8.19-1.52c-2.28.55-4.1,2.65-5.44,6.27l-1.17,7.06q-.69,2.7-7.11,2.7h-21.13v-48.63h6.18v41.96h16.47q.735-13.875,14.21-16.32,11.325-.38993,14.66,10.64Q398.48239,155.272,388.67736,162.432Z" transform="translate(-22.04108 -10.34247)"/>
      <path class="cls-1" d="M491.07738,115.012a3.45651,3.45651,0,0,0-2.64-1.15,3.80445,3.80445,0,0,0-2.82,1.22,3.95327,3.95327,0,0,0-1.2,2.84,4.04484,4.04484,0,0,0,1.15,2.92,3.71684,3.71684,0,0,0,5.47,0,4.41268,4.41268,0,0,0,.04-5.83Z" transform="translate(-22.04108 -10.34247)"/>
      <path class="cls-1" d="M510.29741,151.11194q-2.4,4.8-9.75,6.67h-61.08v-.02a39.28118,39.28118,0,0,1-4.22.02h-25.74l-3.28-6.67h32.35a5.35807,5.35807,0,0,0,4.02-2.7q4.08-19.215-16.08-18.48-9.99,2.7-12.89,13.19h-6.66q2.93994-17.835,21.27-20.2,21.33,1.47006,22.01,21.87a15.71979,15.71979,0,0,1-1.82,6.32h48.73c2.98,0,5-.47,6.08-1.42s1.72-2.56,1.91-4.83a7.22522,7.22522,0,0,0-1.47-5.51,6.578,6.578,0,0,0-3.94-2.48,56.709,56.709,0,0,0-8.12-.32h-30l2.94-6.71h31.03q7.26.09,10.84,2.45Q514.40738,138.412,510.29741,151.11194Z" transform="translate(-22.04108 -10.34247)"/>
      <path class="cls-1" d="M528.38738,109.152v48.63h-25.44q7.11-3.33,7.84-6.67h11.42v-41.96Z" transform="translate(-22.04108 -10.34247)"/>
      <path class="cls-1" d="M579.02646,157.78043q-3.97044,16.47113-24.36322,13.33429l.6863-6.2267q8.48017,1.96066,12.32863-.514a11.39725,11.39725,0,0,0,5.0246-6.59364V132.09279h6.32369Z" transform="translate(-22.04108 -10.34247)"/>
      <path class="cls-1" d="M585.0067,157.78043V109.15158h6.17667v48.62885Z" transform="translate(-22.04108 -10.34247)"/>
      <path class="cls-1" d="M657.8474,109.152v48.63h-27.3v-.02a39.28126,39.28126,0,0,1-4.22.02h-25.73l-3.29-6.67h32.36005a5.39281,5.39281,0,0,0,4.02-2.7q4.065-19.215-16.08-18.48-10.00506,2.7-12.89,13.19h-6.67q2.94-17.835,21.27-20.2,21.33,1.47006,22.01,21.87a15.71978,15.71978,0,0,1-1.82,6.32h12.17v-41.96Z" transform="translate(-22.04108 -10.34247)"/>
      <path class="cls-1" d="M664.02842,157.78043V109.15158h6.17729v48.62885Z" transform="translate(-22.04108 -10.34247)"/>
    </g>
    <path class="cls-1" d="M905.61579,213.08843a51.29951,51.29951,0,0,0,2.10535-6.57191c.73937-3.128,1.20637-6.31181,1.65006-9.49268a2.75157,2.75157,0,0,0,.02767-1.53124,5.10045,5.10045,0,0,0-.88088-1.27977c-1.82676-2.281-3.54531-4.63818-5.354-6.92855.07076,2.3516-.03077,4.7239-.01916,7.079a163.08336,163.08336,0,0,1-.71872,16.79781,6.7022,6.7022,0,0,1-.22515,1.34611c-.15679.502-.22565.5096-.523.15945a11.46628,11.46628,0,0,1-.86534-1.29258q-.6285-.99041-1.28917-1.95992-1.32106-1.93871-2.76662-3.78857a71.96621,71.96621,0,0,0-6.2427-6.99747q-.33453-.329-.67337-.65358c-1.05662-1.0122-2.14395-1.99179-3.24433-2.95606q-.84468-.74021-1.69782-1.47067c-.42745-.36718-.99883-.697-1.14268-1.25955,1.203.1745,2.40894.33928,3.60629.55043.46572.08211,1.03849.26638,1.25251-.19746.23916-.51831-.28209-.89957-.68465-1.17282-1.17381-.7968-2.37256-1.55668-3.558-2.33644q-5.43078-3.57228-10.86143-7.14477c-.43326-.28408-.88053-.77943-1.44072-.41834-.47557.30655-.202.78015-.13518,1.20929.10837.696.0874,1.43231.15821,2.1355a18.21786,18.21786,0,0,0,.76611,4.47007,5.5416,5.5416,0,0,0,2.4574,2.743,8.02585,8.02585,0,0,1,1.53614,1.43523c.516.5034.99328,1.05815,1.4841,1.5917q1.53815,1.67208,3.1161,3.30693c2.09968,2.18775,4.22766,4.34831,6.31134,6.55141a104.2851,104.2851,0,0,1,11.70183,14.76,61.84528,61.84528,0,0,1,8.04108,16.97284q.10155.363.19715.7277a30.19717,30.19717,0,0,1,1.089,7.433c.04243,6.47162-2.66806,12.59781-5.17187,18.56561-.16412.39117-.11772,1.06708.29776.9815a.58878.58878,0,0,0,.31323-.24864,32.853,32.853,0,0,0,6.61908-16.98759,44.37769,44.37769,0,0,0,.21028-5.86q-.058-2.01981-.29379-4.02926a59.10921,59.10921,0,0,0-5.52415-18.395,12.61047,12.61047,0,0,0-.61607-1.18239,2.24663,2.24663,0,0,1-.4718-.96438,4.48632,4.48632,0,0,1,.51956-1.31288C904.99451,214.67833,905.31032,213.88481,905.61579,213.08843Zm3.60585-108.18988q.01683-.783.04865-1.56752c.02639-.63031.45623-.67882.85874-.22356a20.4521,20.4521,0,0,0,3.40417,3.63422c2.50348,1.71851.66178-4.681.41324-5.521-1.14554-3.87157-2.41785-7.89142-3.61185-11.81993-.61237-2.01479-1.21352-4.03309-1.78563-6.05973-.29067-1.0297-.58126-4.19868-1.9989-4.42069-.31352-.04908-.50849.17288-.64379.43544q-1.545,2.99488-2.89792,6.08381c-.90476,2.06589-1.59735,4.23621-.647,6.41533.99628,2.28458.62834,5.46388.58675,7.90131,0,2.60953-.08912,5.22231-.13365,7.83151l-.06683,3.91576c-.01734,1.01645.18653,2.43514-.5356,3.273q-.68833.79869-1.361,1.61075-1.375,1.66169-2.66726,3.38968a57.90007,57.90007,0,0,0-4.6,7.16157,38.04734,38.04734,0,0,0-4.69126,18.13031,56.78964,56.78964,0,0,0,1.82826,13.52854,71.1761,71.1761,0,0,0,7.287,17.74851,117.94721,117.94721,0,0,0,6.95624,10.73725c3.9551,5.503,8.244,10.76963,12.51132,16.02825,2.78145,3.42757,5.56206,6.85764,8.21407,10.38713,1.58565,2.10992,3.10442,4.27193,4.49957,6.51306a57.25376,57.25376,0,0,1,4.295,8.24043c.61226,1.47176,1.092,2.97489,1.61085,4.47435a15.99808,15.99808,0,0,1,.96544,4.78836,8.02752,8.02752,0,0,1-3.14995,7.00618c-1.71136,1.16292-4.12129,2.10461-6.11454,1.11286a6.1905,6.1905,0,0,1-2.50274-2.62315c-1.78391-3.19067-2.63405-7.056-5.339-9.66434a2.6645,2.6645,0,0,0-4.07889.47564c-1.60795,2.74932-1.85808,6.09421-2.08577,9.2144-.2341,3.208-.26188,6.42978-.5921,9.63094a31.58646,31.58646,0,0,1-6.897,16.41913c-3.93433,4.95748-9.223,8.8156-14.47844,12.26135-1.43822.943-2.89571,1.85628-4.36378,2.752-.38489.23482-.98632.3806-.95928.931.04124.83905,1.15837.7274,1.70177.581,9.23926-2.48955,18.94693-5.04921,24.52516-13.49193,3.36335-5.08394,4.42369-11.50006,4.55723-17.49678.05132-2.30433-.09885-4.60666-.11511-6.91047-.00831-1.1764.0185-2.35268.05613-3.5284.02821-.88112-.19885-2.04462.79836-2.45031,2.06208-.83893,3.5217,3.55816,4.062,4.87012.58816,1.42812,1.17678,2.85728,1.85015,4.24725a12.68351,12.68351,0,0,0,1.52027,2.52625,5.44921,5.44921,0,0,0,2.34159,1.74217c2.5918.9187,5.94974-.48182,8.06845-1.99512,4.69034-3.35011,6.65146-9.36047,6.91709-14.90033.31349-6.53813-1.71383-12.97484-4.54878-18.7943a87.36327,87.36327,0,0,0-10.50775-15.75528l-7.512-9.45366c-4.16077-5.236-8.29977-10.48561-12.06279-16.01815A87.19938,87.19938,0,0,1,896.577,155.34785a52.54154,52.54154,0,0,1-2.49228-14.42713c-.20507-9.00346,2.50544-18.27657,8.56514-24.93874q.30035,21.67766.275,43.35818a30.4138,30.4138,0,0,0,.5665,7.23005c1.01683,4.186,3.72983,7.74529,6.35075,11.06293.19469-3.37532-.03322-6.83363-.05029-10.21695q-.026-5.16042-.07625-10.32068c0-9.18659-.17824-18.37506-.25794-27.55965,0-4.347-.07546-8.69546-.11318-13.04235C909.31093,112.62635,909.13856,108.76442,909.22164,104.89855ZM895.10351,268.74812a25.45833,25.45833,0,0,0,8.30386-11.13334c2.0783-5.809,2.14419-12.1762,1.43487-18.24108a22.96424,22.96424,0,0,0-2.21253-8.05081,18.84269,18.84269,0,0,0-4.53917-5.70054,21.31154,21.31154,0,0,0-5.4391-3.332c-.97786-.419-.87334,1.80708-.8927,2.35983a16.7524,16.7524,0,0,0,.47509,4.30617,6.95331,6.95331,0,0,0,.622,1.81749,6.78175,6.78175,0,0,0,2.52408,2.06579,33.48662,33.48662,0,0,1,3.16638,2.34392A17.17447,17.17447,0,0,1,900.552,237.182a3.64531,3.64531,0,0,1,.69583,2.3736c.11593,6.20114-2.39079,12.41767-5.7709,17.52872a42.84447,42.84447,0,0,1-3.6931,4.79291,63.34076,63.34076,0,0,1-22.52641,15.56589c-.29221.11386-.74342.24967-.57859.68119.128.33509.52772.21423.82758.1623,6.41926-1.11189,12.73391-2.40911,18.6479-5.24348a38.57442,38.57442,0,0,0,4.67588-2.6401C893.6086,269.886,894.36859,269.33392,895.10351,268.74812Z" transform="translate(-22.04108 -10.34247)"/>
    <path class="cls-2" d="M1058.15953,140.09161a123.911,123.911,0,0,0-54.90777-61.95638c3.70162-.1488,7.40325-.44821,11.10488-.67278,3.70162-.22365,7.36582-.59792,11.06745-.87816,3.68291-.28025,7.36583-.63626,11.0492-1.02879.03742,0,.09311-.01826.14925-.01826a3.4028,3.4028,0,0,0,2.86043-3.8705l-.05614-.28025c-.63535-4.3744-1.25244-8.7488-1.92567-13.10494-.7102-4.35615-1.38343-8.73055-2.13106-13.08669a4.24337,4.24337,0,0,0-1.8321-2.80429l-.16842-.11228c-8.11346-5.40319-16.30222-10.65667-24.528-15.891-8.2449-5.17863-16.52678-10.339-24.88351-15.34875l-.16842-.094a4.31578,4.31578,0,0,0-3.34653-.44821c-4.43054,1.25243-8.86108,2.56147-13.27337,3.85133-4.41228,1.30812-8.82411,2.71027-13.23639,4.05673l-.26154.07485a3.37175,3.37175,0,0,0-2.26205,4.11241c1.0653,3.98279,2.20591,7.94549,3.3835,11.90911,1.178,3.94536,2.28076,7.92723,3.53366,11.87168,1.23372,3.92619,2.41176,7.88981,3.72034,11.81508.67277,2.05666,1.346,4.11333,2.03749,6.17A126.32539,126.32539,0,0,0,941.258,62.58109a123.96074,123.96074,0,0,0-85.624,211.556,120.99856,120.99856,0,0,1-26.06155-39.37235A118.231,118.231,0,0,1,941.258,72.22814a118.30923,118.30923,0,0,1,0,236.58828,119.47106,119.47106,0,0,1-46.27079-8.61827A120.72178,120.72178,0,0,1,855.634,274.13706a123.88882,123.88882,0,0,0,202.52555-134.04545Zm-58.06717-63.657q-5.104-2.66463-10.41339-4.82353a121.84631,121.84631,0,0,0-24.32256-7.02989c-.28071-2.31774-.61709-4.63548-.95348-6.95413-.54224-4.09416-1.25289-8.15088-1.86953-12.245-.61709-4.0759-1.38343-8.13262-2.07537-12.20852-.4861-2.87914-.99091-5.77655-1.55186-8.65569,3.4401-.74763,6.89891-1.477,10.31983-2.2438,3.85133-.87817,7.66524-1.75724,11.49786-2.67284,7.60911,5.04718,15.31132,9.983,23.014,14.86219,7.72093,4.861,15.47974,9.68448,23.313,14.37656.785,3.6642,1.60754,7.31014,2.41176,10.97434.7102,3.15939,1.45783,6.30052,2.20591,9.45992-2.37433.46738-4.74867.97219-7.10429,1.49525-3.62677.80423-7.25354,1.51443-10.86206,2.37434-3.60806.85991-7.21612,1.64587-10.82463,2.58064C1001.94272,75.948,1001.02713,76.19176,1000.09236,76.43458Z" transform="translate(-22.04108 -10.34247)"/>
    <path class="cls-3" d="M985.10739,188.50487a123.89627,123.89627,0,0,1-210.15062,89.04626,125.21112,125.21112,0,0,1-27.84527-40.62661,124.21731,124.21731,0,0,1-.0089-96.84295,123.93534,123.93534,0,0,1,238.00479,48.4233Zm0,0a121.148,121.148,0,0,0-9.40331-46.26714,118.26966,118.26966,0,0,0-193.90272-35.93545A118.30218,118.30218,0,0,0,949.08477,273.58569,119.30932,119.30932,0,0,0,975.705,234.772,121.14193,121.14193,0,0,0,985.10739,188.50487Z" transform="translate(-22.04108 -10.34247)"/>
  </g>
</svg>
